<svg width="35" height="42" viewBox="0 0 35 42" fill="none" xmlns="http://www.w3.org/2000/svg">
<path d="M33.2561 14.98C31.1994 12.42 28.3165 10.9404 25.5991 10.9502C22.0116 10.9631 20.5003 12.6861 18.0079 12.6951C15.4379 12.7044 13.4792 10.9989 10.3768 11.0101C7.32931 11.0211 4.09107 12.8953 2.0451 16.0877C-0.831178 20.5831 -0.305746 29.0137 4.40762 36.1792C6.09438 38.7431 8.34478 41.625 11.2748 41.6394C13.8824 41.655 14.6113 39.9549 18.1437 39.9246C21.676 39.8919 22.3523 41.6219 24.9547 41.585C27.887 41.5519 30.2379 38.341 31.9061 35.7649C33.102 33.9181 33.5461 32.989 34.4711 30.9057C27.6794 28.3477 26.5571 18.7067 33.2561 14.98Z" fill="black"/>
<path d="M25.3573 0.951011C23.2254 1.10621 20.7378 2.48019 19.2917 4.26291C17.9726 5.88017 16.8912 8.27908 17.3246 10.605C19.6549 10.6691 22.0573 9.26293 23.4458 7.45041C24.7447 5.76323 25.7236 3.37969 25.3573 0.951011Z" fill="black"/>
</svg>
