<svg width="19" height="16" viewBox="0 0 19 16" fill="none" xmlns="http://www.w3.org/2000/svg">
<g clip-path="url(#clip0_1_3839)">
<path d="M15.1167 3.19359C14.9126 3.17126 14.7077 3.22903 14.5453 3.35476C14.383 3.48048 14.2757 3.66432 14.2462 3.86756V12.1421C14.29 13.036 15.9477 13.0328 15.9904 12.1421V3.86435C15.9604 3.66074 15.8526 3.47671 15.6896 3.35101C15.5267 3.2253 15.3213 3.16771 15.1167 3.19038V3.19359Z" fill="#EBEFFE"/>
<path d="M8.87371 3.00489C8.66915 2.98222 8.46377 3.03979 8.30081 3.1655C8.13785 3.29121 8.03001 3.47523 8 3.67885V11.9533C8.04379 12.8463 9.70895 12.8463 9.74847 11.9533V3.67565C9.71772 3.47241 9.60941 3.289 9.4463 3.16393C9.28318 3.03885 9.07796 2.98185 8.87371 3.00489Z" fill="#EBEFFE"/>
<path d="M11.8705 4.99988C11.6394 5.00044 11.418 5.09264 11.2548 5.25623C11.0916 5.41981 11 5.64144 11 5.87251V10.2026C11.0079 10.4286 11.1033 10.6427 11.2659 10.7998C11.4286 10.9569 11.6459 11.0447 11.8721 11.0447C12.0982 11.0447 12.3156 10.9569 12.4782 10.7998C12.6409 10.6427 12.7363 10.4286 12.7442 10.2026V5.87251C12.7436 5.64106 12.6514 5.41928 12.4876 5.25572C12.3238 5.09216 12.1019 5.00016 11.8705 4.99988Z" fill="#3D4DFF"/>
<path d="M17.9653 6.56018C17.7342 6.56075 17.5128 6.65292 17.3496 6.81651C17.1864 6.9801 17.0948 7.20175 17.0948 7.43281V8.57245C17.1027 8.79846 17.198 9.01259 17.3607 9.16968C17.5234 9.32677 17.7407 9.41456 17.9669 9.41456C18.193 9.41456 18.4104 9.32677 18.5731 9.16968C18.7357 9.01259 18.8311 8.79846 18.839 8.57245V7.43814C18.8394 7.32309 18.8171 7.20908 18.7734 7.10265C18.7297 6.99622 18.6654 6.89945 18.5843 6.8179C18.5031 6.73634 18.4067 6.6716 18.3005 6.62738C18.1942 6.58315 18.0803 6.56032 17.9653 6.56018Z" fill="#3D4DFF"/>
<path d="M0.873704 6.56018C0.758648 6.56032 0.64475 6.58315 0.538532 6.62738C0.432315 6.6716 0.335865 6.73634 0.254706 6.8179C0.173548 6.89945 0.109275 6.99622 0.0655699 7.10265C0.0218644 7.20908 -0.000415665 7.32309 5.87153e-06 7.43814V8.5778C0.00791667 8.80381 0.103262 9.01792 0.265948 9.17501C0.428633 9.3321 0.645951 9.4199 0.872102 9.4199C1.09825 9.4199 1.31557 9.3321 1.47826 9.17501C1.64094 9.01792 1.73629 8.80381 1.7442 8.5778V7.43814C1.7449 7.32328 1.72292 7.20941 1.67951 7.10306C1.63611 6.99671 1.57213 6.89997 1.49126 6.8184C1.41039 6.73683 1.3142 6.67203 1.20823 6.62772C1.10225 6.58341 0.98857 6.56046 0.873704 6.56018Z" fill="#EBEFFE"/>
<path d="M3.72229 2.76526C3.47601 2.78148 3.24608 2.89424 3.08248 3.07904C2.91888 3.26384 2.83483 3.50574 2.84859 3.75217V12.2553C2.83428 12.3783 2.84617 12.5029 2.88347 12.621C2.92076 12.7391 2.98263 12.848 3.065 12.9405C3.14736 13.033 3.24837 13.107 3.36137 13.1577C3.47438 13.2084 3.59683 13.2346 3.72068 13.2346C3.84454 13.2346 3.96699 13.2084 4.08 13.1577C4.19301 13.107 4.29401 13.033 4.37637 12.9405C4.45874 12.848 4.5206 12.7391 4.5579 12.621C4.5952 12.5029 4.60708 12.3783 4.59278 12.2553V3.75217C4.60685 3.50619 4.52333 3.2646 4.36035 3.07982C4.19738 2.89505 3.9681 2.78201 3.72229 2.76526Z" fill="#3D4DFF"/>
<path d="M6.5709 5.42146e-06C6.35715 -0.0157153 6.14578 0.0531766 5.98235 0.191833C5.81892 0.330489 5.71652 0.527808 5.6972 0.741261V15.2673C5.73193 15.4735 5.83859 15.6607 5.99824 15.7957C6.15789 15.9307 6.36021 16.0048 6.5693 16.0048C6.77838 16.0048 6.9807 15.9307 7.14036 15.7957C7.30001 15.6607 7.40667 15.4735 7.44139 15.2673V0.741261C7.4226 0.528188 7.3208 0.331044 7.15794 0.192368C6.99509 0.0536911 6.78424 -0.015399 6.5709 5.42146e-06Z" fill="#EBEFFE"/>
</g>
<defs>
<clipPath id="clip0_1_3839">
<rect width="18.839" height="16" fill="white"/>
</clipPath>
</defs>
</svg>
