<svg width="397" height="844" viewBox="0 0 397 844" fill="none" xmlns="http://www.w3.org/2000/svg">
<path d="M-91.4679 149.517C103.204 187.659 189.868 268.327 319.44 163.835C449.012 59.3427 606.291 85.7687 641.382 106.71" stroke="#F333E6" stroke-opacity="0.03" stroke-width="3.89425"/>
<path d="M-103.78 62.5601C90.8914 100.702 177.556 181.37 307.127 76.8781C436.699 -27.6143 593.978 -1.18832 629.07 19.7533" stroke="#F333E6" stroke-opacity="0.03" stroke-width="3.89425"/>
<path d="M-91.1476 238.232C103.524 276.374 190.189 357.042 319.76 252.55C449.332 148.058 606.611 174.484 641.703 195.425" stroke="#F333E6" stroke-opacity="0.03" stroke-width="3.89425"/>
<path d="M-90.6593 373.558C104.013 411.7 190.677 492.369 320.249 387.876C449.82 283.384 607.099 309.81 642.191 330.751" stroke="#F333E6" stroke-opacity="0.03" stroke-width="3.89425"/>
<path d="M-90.171 508.882C104.501 547.024 191.165 627.693 320.737 523.2C450.308 418.708 607.588 445.134 642.679 466.076" stroke="#F333E6" stroke-opacity="0.03" stroke-width="3.89425"/>
<path d="M-114.452 431.328C80.2196 469.47 166.884 550.138 296.456 445.646C426.027 341.153 583.306 367.579 618.398 388.521" stroke="#F333E6" stroke-opacity="0.03" stroke-width="3.89425"/>
<path d="M-114.757 347.601C79.9149 385.743 166.579 466.411 296.151 361.919C425.723 257.427 583.002 283.853 618.093 304.794" stroke="#F333E6" stroke-opacity="0.03" stroke-width="3.89425"/>
<path d="M-114.187 505.318C80.4852 543.46 167.15 624.128 296.721 519.636C426.293 415.143 583.572 441.569 618.664 462.511" stroke="#F333E6" stroke-opacity="0.03" stroke-width="3.89425"/>
<path d="M-113.698 640.642C80.9735 678.784 167.638 759.452 297.209 654.96C426.781 550.468 584.06 576.894 619.152 597.835" stroke="#F333E6" stroke-opacity="0.03" stroke-width="3.89425"/>
<path d="M-113.21 775.966C81.4618 814.108 168.126 894.777 297.698 790.284C427.269 685.792 584.548 712.218 619.64 733.16" stroke="#F333E6" stroke-opacity="0.03" stroke-width="3.89425"/>
</svg>
