<svg width="25" height="25" viewBox="0 0 25 25" fill="none" xmlns="http://www.w3.org/2000/svg">
<path d="M2.87892 6.89956C2.47049 6.89956 2.13939 7.23066 2.13939 7.63909C2.13939 8.04752 2.47049 8.37862 2.87892 8.37862V6.89956ZM22.5997 8.37862C23.0081 8.37862 23.3392 8.04752 23.3392 7.63909C23.3392 7.23066 23.0081 6.89956 22.5997 6.89956V8.37862ZM14.7114 11.8298C14.303 11.8298 13.9719 12.1609 13.9719 12.5693C13.9719 12.9777 14.303 13.3088 14.7114 13.3088V11.8298ZM18.6556 13.3088C19.064 13.3088 19.3951 12.9777 19.3951 12.5693C19.3951 12.1609 19.064 11.8298 18.6556 11.8298V13.3088ZM14.7114 15.7739C14.303 15.7739 13.9719 16.105 13.9719 16.5134C13.9719 16.9219 14.303 17.253 14.7114 17.253V15.7739ZM18.6556 17.253C19.064 17.253 19.3951 16.9219 19.3951 16.5134C19.3951 16.105 19.064 15.7739 18.6556 15.7739V17.253ZM7.91936 12.9582L10.6447 14.3209L11.3062 12.998L8.58081 11.6353L7.91936 12.9582ZM10.6447 14.7618L7.91936 16.1246L8.58081 17.4474L11.3062 16.0847L10.6447 14.7618ZM7.56261 15.9041V13.1787H6.08355V15.9041H7.56261ZM7.91936 16.1246C7.75546 16.2065 7.56261 16.0873 7.56261 15.9041H6.08355C6.08355 17.1868 7.43348 18.0211 8.58081 17.4474L7.91936 16.1246ZM10.6447 14.3209C10.8264 14.4117 10.8264 14.671 10.6447 14.7618L11.3062 16.0847C12.578 15.4488 12.578 13.6339 11.3062 12.998L10.6447 14.3209ZM8.58081 11.6353C7.43349 11.0616 6.08355 11.8959 6.08355 13.1787H7.56261C7.56261 12.9955 7.75546 12.8762 7.91936 12.9582L8.58081 11.6353ZM6.82308 3.44842H18.6556V1.96936H6.82308V3.44842ZM21.8602 6.65305V18.4855H23.3392V6.65305H21.8602ZM18.6556 21.6902H6.82308V23.1692H18.6556V21.6902ZM3.61845 18.4855V6.65305H2.13939V18.4855H3.61845ZM6.82308 21.6902C5.05321 21.6902 3.61845 20.2554 3.61845 18.4855H2.13939C2.13939 21.0723 4.23635 23.1692 6.82308 23.1692V21.6902ZM21.8602 18.4855C21.8602 20.2554 20.4254 21.6902 18.6556 21.6902V23.1692C21.2423 23.1692 23.3392 21.0723 23.3392 18.4855H21.8602ZM18.6556 3.44842C20.4254 3.44842 21.8602 4.88318 21.8602 6.65305H23.3392C23.3392 4.06632 21.2423 1.96936 18.6556 1.96936V3.44842ZM6.82308 1.96936C4.23635 1.96936 2.13939 4.06632 2.13939 6.65305H3.61845C3.61845 4.88318 5.05321 3.44842 6.82308 3.44842V1.96936ZM2.87892 8.37862H22.5997V6.89956H2.87892V8.37862ZM14.7114 13.3088H18.6556V11.8298H14.7114V13.3088ZM14.7114 17.253H18.6556V15.7739H14.7114V17.253Z" fill="#3D4DFF"/>
</svg>
