<svg width="28" height="28" viewBox="0 0 28 28" fill="none" xmlns="http://www.w3.org/2000/svg">
<path fill-rule="evenodd" clip-rule="evenodd" d="M7.58338 14.5834C7.58338 18.1272 10.4562 21 14.0001 21C17.5439 21 20.4167 18.1272 20.4167 14.5834C20.4167 11.0395 17.5439 8.16669 14.0001 8.16669C10.4562 8.16669 7.58338 11.0395 7.58338 14.5834ZM9.91672 14.5834C9.91672 12.3282 11.7449 10.5 14.0001 10.5C16.2552 10.5 18.0834 12.3282 18.0834 14.5834C18.0834 16.8385 16.2552 18.6667 14.0001 18.6667C11.7449 18.6667 9.91672 16.8385 9.91672 14.5834Z" fill="black"/>
<path fill-rule="evenodd" clip-rule="evenodd" d="M11.5869 2.33335C10.8782 2.33335 10.3237 2.62421 9.91202 2.95206C9.54306 3.24592 9.23362 3.6167 9.00934 3.88544L8.98146 3.91884C8.72029 4.23146 8.55278 4.42509 8.38791 4.5564C8.25018 4.66609 8.19333 4.66694 8.16672 4.66694L8.09922 4.66694C7.62248 4.66688 7.29788 4.66684 7.01162 4.69503C4.24208 4.96781 2.05092 7.15898 1.77814 9.92851C1.74995 10.2148 1.74999 10.5394 1.75005 11.0161L1.75005 17.0375C1.75004 18.3232 1.75003 19.3602 1.81973 20.1995C1.8915 21.0638 2.04318 21.8224 2.40681 22.5224C2.96025 23.5878 3.82895 24.4565 4.89437 25.0099C5.59437 25.3736 6.35296 25.5252 7.21724 25.597C8.05652 25.6667 9.0935 25.6667 10.3792 25.6667H17.6208C18.9065 25.6667 19.9436 25.6667 20.7829 25.597C21.6471 25.5252 22.4057 25.3736 23.1057 25.0099C24.1712 24.4565 25.0399 23.5878 25.5933 22.5224C25.9569 21.8224 26.1086 21.0638 26.1804 20.1995C26.2501 19.3602 26.2501 18.3232 26.25 17.0376L26.2501 11.0161C26.2501 10.5394 26.2502 10.2148 26.222 9.92851C25.9492 7.15898 23.758 4.96781 20.9885 4.69503C20.7022 4.66684 20.3776 4.66688 19.9009 4.66694L19.8334 4.66694L19.8312 4.66709L19.8297 4.66626C19.8213 4.66255 19.7898 4.64666 19.7331 4.59638C19.5984 4.47684 19.4598 4.29538 19.2293 3.97932L19.2029 3.94315C19.0088 3.67666 18.7316 3.29601 18.3891 2.99204C18 2.64675 17.4557 2.33335 16.7401 2.33335H11.5869ZM8.16672 7.00028C8.87545 7.00028 9.42995 6.70942 9.84159 6.38157C10.2105 6.08771 10.52 5.71694 10.7443 5.4482L10.7722 5.41479C11.0333 5.10217 11.2008 4.90854 11.3657 4.77723C11.5034 4.66754 11.5603 4.66669 11.5869 4.66669H16.7401L16.7422 4.66654L16.7437 4.66737C16.7521 4.67108 16.7836 4.68697 16.8403 4.73725C16.975 4.85679 17.1136 5.03825 17.3441 5.35431L17.3705 5.39048C17.5646 5.65697 17.8418 6.03762 18.1844 6.34159C18.5735 6.68688 19.1178 7.00028 19.8334 7.00028C20.4029 7.00028 20.603 7.00169 20.7598 7.01713C22.4215 7.18079 23.7362 8.4955 23.8999 10.1572C23.9153 10.314 23.9167 10.5141 23.9167 11.0836V16.9867C23.9167 18.3351 23.9158 19.275 23.855 20.0064C23.7955 20.7238 23.6844 21.1353 23.5227 21.4468C23.1906 22.086 22.6694 22.6072 22.0301 22.9393C21.7187 23.1011 21.3071 23.2121 20.5898 23.2717C19.8584 23.3324 18.9184 23.3334 17.5701 23.3334H10.4301C9.08166 23.3334 8.1417 23.3324 7.41035 23.2717C6.69296 23.2121 6.28141 23.1011 5.96997 22.9393C5.33072 22.6072 4.8095 22.086 4.47744 21.4468C4.31566 21.1353 4.20463 20.7238 4.14506 20.0064C4.08432 19.275 4.08338 18.3351 4.08338 16.9867V11.0836C4.08338 10.5141 4.0848 10.314 4.10024 10.1572C4.2639 8.4955 5.5786 7.18079 7.24032 7.01713C7.39706 7.00169 7.59723 7.00028 8.16672 7.00028Z" fill="black"/>
</svg>
