<svg width="19" height="18" viewBox="0 0 19 18" fill="none" xmlns="http://www.w3.org/2000/svg">
<path d="M9.03394 17.2312C14.0076 17.2376 18.0446 13.3951 18.0508 8.6485C18.0569 3.90194 14.03 0.0488456 9.05633 0.0423681C4.08266 0.0358907 0.0456937 3.87848 0.039512 8.62504C0.0333304 13.3716 4.06028 17.2247 9.03394 17.2312Z" fill="url(#paint0_linear_1_3251)"/>
<mask id="mask0_1_3251" style="mask-type:luminance" maskUnits="userSpaceOnUse" x="0" y="0" width="19" height="18">
<path d="M9.03394 17.2312C14.0076 17.2376 18.0446 13.3951 18.0508 8.6485C18.0569 3.90194 14.03 0.0488456 9.05633 0.0423681C4.08266 0.0358907 0.0456937 3.87848 0.039512 8.62504C0.0333304 13.3716 4.06028 17.2247 9.03394 17.2312Z" fill="white"/>
</mask>
<g mask="url(#mask0_1_3251)">
<path style="mix-blend-mode:screen" opacity="0.9" d="M1.80966 12.309C0.906658 10.6479 0.649632 8.7352 1.08414 6.91053C1.51865 5.08586 2.61658 3.46722 4.1831 2.34198C5.74961 1.21675 7.68334 0.657691 9.64096 0.764078C11.5986 0.870465 13.4535 1.6354 14.8764 2.9231C11.9297 2.93684 9.06662 3.85765 6.71247 5.54865C4.35832 7.23965 2.63878 9.61058 1.80966 12.309Z" fill="url(#paint1_linear_1_3251)"/>
<path style="mix-blend-mode:screen" d="M16.7829 5.00403C15.6162 3.1884 13.7616 1.87126 11.6043 1.32606C9.44695 0.780865 7.15254 1.04949 5.19747 2.07619C3.2424 3.10289 1.77681 4.80878 1.10508 6.83966C0.43334 8.87055 0.607035 11.0704 1.59007 12.9825C0.976147 12.0271 0.57169 10.9628 0.40121 9.854C0.230729 8.74519 0.29775 7.61493 0.598222 6.53161C0.898694 5.44829 1.42647 4.43445 2.14941 3.55142C2.87235 2.66839 3.77543 1.93455 4.80418 1.3943C5.83294 0.854053 6.96598 0.518621 8.13455 0.408326C9.30313 0.298032 10.483 0.415175 11.6028 0.752631C12.7226 1.09009 13.7591 1.64085 14.6494 2.37161C15.5398 3.10236 16.2656 3.99789 16.7829 5.00403Z" fill="url(#paint2_linear_1_3251)"/>
</g>
<mask id="mask1_1_3251" style="mask-type:luminance" maskUnits="userSpaceOnUse" x="0" y="0" width="19" height="18">
<path d="M9.03395 17.2312C14.0076 17.2376 18.0446 13.3951 18.0508 8.6485C18.0569 3.90194 14.03 0.0488456 9.05633 0.0423681C4.08266 0.0358907 0.0456937 3.87848 0.039512 8.62504C0.0333304 13.3716 4.06028 17.2247 9.03395 17.2312Z" fill="white"/>
</mask>
<g mask="url(#mask1_1_3251)">
<path style="mix-blend-mode:screen" opacity="0.9" d="M1.80966 12.309C0.906658 10.6479 0.649632 8.7352 1.08414 6.91053C1.51865 5.08586 2.61658 3.46722 4.1831 2.34198C5.74961 1.21675 7.68334 0.657691 9.64096 0.764078C11.5986 0.870465 13.4535 1.6354 14.8764 2.9231C11.9297 2.93684 9.06662 3.85765 6.71247 5.54865C4.35832 7.23965 2.63878 9.61058 1.80966 12.309Z" fill="url(#paint3_linear_1_3251)"/>
<path style="mix-blend-mode:screen" d="M16.7829 5.00403C15.6162 3.1884 13.7616 1.87126 11.6043 1.32606C9.44695 0.780865 7.15254 1.04949 5.19747 2.07619C3.2424 3.10289 1.77681 4.80878 1.10508 6.83966C0.43334 8.87055 0.607035 11.0704 1.59007 12.9825C0.976147 12.0271 0.57169 10.9628 0.40121 9.854C0.230729 8.74519 0.29775 7.61493 0.598222 6.53161C0.898694 5.44829 1.42647 4.43445 2.14941 3.55142C2.87235 2.66839 3.77543 1.93455 4.80418 1.3943C5.83294 0.854053 6.96598 0.518621 8.13455 0.408326C9.30313 0.298032 10.483 0.415175 11.6028 0.752631C12.7226 1.09009 13.7591 1.64085 14.6494 2.37161C15.5398 3.10236 16.2656 3.99789 16.7829 5.00403Z" fill="url(#paint4_linear_1_3251)"/>
</g>
<path d="M5.31213 7.95921C4.74398 7.97498 4.20175 8.18987 3.78908 8.56284C3.37642 8.93582 3.12214 9.44075 3.07477 9.98129C3.42239 10.1442 3.80567 10.2258 4.19288 10.2192C4.58008 10.2126 4.96008 10.1181 5.30136 9.94349C5.36541 9.90383 5.69675 9.72006 5.91075 9.97528C6.37422 10.5294 5.58263 10.8473 5.24422 10.9787C5.02267 11.0666 5.21033 11.188 5.22658 11.1919C5.82297 11.2107 6.41678 11.2763 7.0019 11.3881C7.16493 11.4484 7.30772 11.5498 7.41491 11.6816C7.52211 11.8134 7.58964 11.9706 7.61035 12.1363C7.59399 12.5116 7.45055 12.8718 7.20145 13.1627C6.95235 13.4535 6.61101 13.6594 6.22883 13.7495C5.56422 13.8369 4.88756 13.7263 4.29123 13.4329C4.8941 14.0536 5.53075 14.6436 6.19855 15.2006C6.73936 15.6443 6.78299 15.6802 7.21324 16.0103C7.88225 15.6857 8.57002 15.3976 9.27327 15.1474C9.10647 14.9524 9.00011 14.7168 8.96616 14.4672C8.9322 14.2176 8.97196 13.9639 9.08106 13.7348C9.13327 13.6812 9.19609 13.638 9.26585 13.6076C9.33562 13.5773 9.41098 13.5603 9.48762 13.5579C10.0039 13.5451 10.5119 13.4313 10.9802 13.2234C9.94395 13.3481 9.66832 12.8747 9.87381 12.6404C10.0539 12.4303 10.5698 12.4416 10.8176 12.4778C11.2878 12.5537 11.7688 12.5428 12.2346 12.4457C12.923 10.3537 10.6509 8.69511 8.49311 9.71595C8.18957 9.97361 7.80874 10.1335 7.4046 10.1731C7.00046 10.2126 6.59355 10.1298 6.24149 9.93625C5.88942 9.74274 5.61007 9.44841 5.44307 9.09494C5.27608 8.74148 5.22984 8.34685 5.311 7.96696" fill="url(#paint5_linear_1_3251)"/>
<path d="M2.30926 8.89651C0.831895 10.0346 2.72074 13.4899 5.54111 13.7718C7.26766 13.9447 7.97365 12.3685 7.42096 11.6882C7.33086 11.5754 7.21431 11.4842 7.08069 11.4221C6.94707 11.36 6.80004 11.3286 6.65143 11.3304C6.17393 11.3268 5.69782 11.2801 5.22953 11.191C5.21103 11.1865 5.19399 11.1778 5.17984 11.1655C5.1657 11.1533 5.1549 11.1379 5.14841 11.1208C5.14192 11.1037 5.13997 11.0853 5.14265 11.0673C5.14533 11.0492 5.15257 11.0321 5.16379 11.0174C5.38958 10.7966 5.78666 10.8495 5.96886 10.558C6.02396 10.4525 6.04254 10.333 6.02188 10.2167C6.00122 10.1005 5.94237 9.99349 5.85389 9.9112C5.63776 9.73644 5.30229 9.94347 5.28806 9.95218C5.02971 10.1135 4.73525 10.2147 4.4284 10.2475C4.12155 10.2803 3.81091 10.2438 3.52153 10.141C3.23215 10.0382 2.97215 9.87187 2.76246 9.65555C2.55277 9.43922 2.39927 9.17889 2.31435 8.89557" fill="url(#paint6_linear_1_3251)"/>
<path d="M15.8862 8.78258C15.376 10.5694 13.4704 12.8953 10.8188 12.4731C10.4238 12.4106 9.72391 12.463 9.81683 12.8751C9.88045 13.1553 10.4258 13.3169 10.9886 13.2207C10.5186 13.4311 10.0079 13.5463 9.48884 13.559C9.38765 13.5615 9.28901 13.5897 9.20306 13.6407C9.1171 13.6917 9.047 13.7637 8.99993 13.8492C8.92254 13.9964 8.8011 15.1886 9.80329 15.4633C11.1598 15.8334 13.2582 14.4431 14.3139 13.3365C16.4896 11.0594 16.2217 9.25995 16.0393 8.93691C16.008 8.8709 15.954 8.81708 15.8862 8.78448" fill="url(#paint7_linear_1_3251)"/>
<path d="M11.3096 6.71361L6.9164 6.70789C7.1873 7.01109 7.52385 7.25469 7.90282 7.42191C8.2818 7.58913 8.69417 7.67599 9.11167 7.67653C9.52917 7.67708 9.94189 7.59129 10.3213 7.42506C10.7007 7.25883 11.0379 7.01611 11.3096 6.71361Z" fill="url(#paint8_linear_1_3251)"/>
<path d="M6.06717 3.84712C5.01477 3.90875 4.53225 5.42808 5.17965 5.92427C5.82706 6.42046 6.87856 5.55426 6.77012 4.58766C6.77356 4.40208 6.70272 4.22221 6.57213 4.08464C6.44155 3.94707 6.26103 3.86213 6.06717 3.84712Z" fill="#27304E"/>
<path d="M11.9014 3.85483C10.9871 3.9089 10.9571 5.19715 11.6582 5.80585C11.7738 5.94076 11.9335 6.03459 12.1118 6.07222C12.2901 6.10984 12.4764 6.08903 12.6408 6.01321C12.8052 5.93738 12.9381 5.81094 13.018 5.65424C13.0978 5.49754 13.12 5.31973 13.081 5.14949C13.0706 4.83693 12.9474 4.53737 12.7323 4.30146C12.5172 4.06555 12.2243 3.9078 11.9014 3.85483Z" fill="#27304E"/>
<path d="M7.24688 2.44018C5.55763 2.48161 4.67292 3.23173 4.95598 3.48801C4.97798 3.50435 5.00357 3.51572 5.03083 3.5213C5.05809 3.52687 5.08633 3.5265 5.11341 3.52019C5.17197 3.50734 5.22678 3.48226 5.27395 3.44674C5.54805 3.27286 5.85223 3.14657 6.1724 3.07372C6.55661 2.98388 6.95312 2.95169 7.34773 2.97831C7.38829 2.98211 7.42927 2.9789 7.46863 2.96879C7.54396 2.95051 7.61084 2.90897 7.65887 2.85065C7.70689 2.79233 7.73334 2.7205 7.73415 2.64633C7.72325 2.43596 7.54348 2.43767 7.24687 2.44116" fill="#D97700"/>
<path d="M10.742 2.44475C9.90706 2.44367 10.3523 2.88628 10.3574 2.89113C10.4003 2.92947 10.4522 2.95745 10.5087 2.97274C10.548 2.98312 10.589 2.98647 10.6296 2.9826C10.9713 2.96292 11.3143 2.98454 11.6503 3.04694C12.0274 3.11484 12.3863 3.25406 12.7061 3.45641C12.7566 3.49481 12.8162 3.52085 12.8797 3.53225C12.9045 3.53854 12.9306 3.53889 12.9556 3.53329C12.9806 3.5277 13.0038 3.51632 13.0231 3.50016C13.0424 3.48399 13.0571 3.46354 13.0662 3.44061C13.0752 3.41768 13.0783 3.39297 13.075 3.36867C13.0542 2.92564 11.8766 2.4598 10.74 2.44475" fill="#D97700"/>
<defs>
<linearGradient id="paint0_linear_1_3251" x1="4.42645" y1="0.792647" x2="13.0725" y2="16.9298" gradientUnits="userSpaceOnUse">
<stop stop-color="#FFFDF1"/>
<stop offset="0.201" stop-color="#FFEB72"/>
<stop offset="0.753" stop-color="#F69B32"/>
<stop offset="1" stop-color="#ED6C12"/>
</linearGradient>
<linearGradient id="paint1_linear_1_3251" x1="4.09003" y1="2.39877" x2="6.88594" y2="7.42269" gradientUnits="userSpaceOnUse">
<stop stop-color="white"/>
<stop offset="1" stop-color="#231F20"/>
</linearGradient>
<linearGradient id="paint2_linear_1_3251" x1="13.8401" y1="1.09399" x2="3.47805" y2="13.0856" gradientUnits="userSpaceOnUse">
<stop stop-color="#231F20"/>
<stop offset="0.536" stop-color="white"/>
<stop offset="1" stop-color="#231F20"/>
</linearGradient>
<linearGradient id="paint3_linear_1_3251" x1="4.09003" y1="2.39877" x2="6.88594" y2="7.42269" gradientUnits="userSpaceOnUse">
<stop stop-color="white"/>
<stop offset="1" stop-color="#231F20"/>
</linearGradient>
<linearGradient id="paint4_linear_1_3251" x1="13.8401" y1="1.09399" x2="3.47805" y2="13.0856" gradientUnits="userSpaceOnUse">
<stop stop-color="#231F20"/>
<stop offset="0.536" stop-color="white"/>
<stop offset="1" stop-color="#231F20"/>
</linearGradient>
<linearGradient id="paint5_linear_1_3251" x1="7.21101" y1="7.43852" x2="8.19474" y2="15.9769" gradientUnits="userSpaceOnUse">
<stop stop-color="#F15B5A"/>
<stop offset="1" stop-color="#DB2A37"/>
</linearGradient>
<linearGradient id="paint6_linear_1_3251" x1="1.81798" y1="9.16359" x2="5.7646" y2="13.6016" gradientUnits="userSpaceOnUse">
<stop stop-color="#FFEB72"/>
<stop offset="0.996" stop-color="#F69B32"/>
</linearGradient>
<linearGradient id="paint7_linear_1_3251" x1="8.95259" y1="12.148" x2="16.155" y2="12.1574" gradientUnits="userSpaceOnUse">
<stop stop-color="#FFEB72"/>
<stop offset="0.996" stop-color="#F69B32"/>
</linearGradient>
<linearGradient id="paint8_linear_1_3251" x1="9.11308" y1="6.63928" x2="9.11125" y2="7.55582" gradientUnits="userSpaceOnUse">
<stop stop-color="#4B2313"/>
<stop offset="0.382" stop-color="#6B311A"/>
<stop offset="0.771" stop-color="#863E21"/>
<stop offset="1" stop-color="#914324"/>
</linearGradient>
</defs>
</svg>
