<svg width="18" height="18" viewBox="0 0 18 18" fill="none" xmlns="http://www.w3.org/2000/svg">
<path d="M7.86185 0.281647L6.14189 1.7992H8.60853V-5.42576e-06C8.34233 -0.000877415 8.07584 0.0930067 7.86185 0.281647Z" fill="#FDF0BC"/>
<path d="M9.34596 0.279897C9.13426 0.0941634 8.8718 0.000860545 8.60904 -1.14441e-05V1.79919H11.0757L9.34596 0.279897Z" fill="url(#paint0_linear_1_3301)"/>
<path d="M2.60844 2.7697L2.2536 5.05257L4.14309 3.44607L3.00171 2.06775C2.79718 2.2404 2.65261 2.48601 2.60844 2.7697Z" fill="#FDF0BC"/>
<path d="M3.74414 1.80226C3.46418 1.79761 3.20372 1.89731 3.00206 2.06793L4.14344 3.44626L6.03293 1.83976L3.74414 1.80226Z" fill="url(#paint1_linear_1_3301)"/>
<path d="M0.162836 8.09762L1.33893 10.0776L1.7672 7.61628L0.0188365 7.30353C-0.028494 7.56919 0.0165417 7.85143 0.162836 8.09762Z" fill="#FDF0BC"/>
<path d="M0.418471 6.61634C0.201325 6.79539 0.0650704 7.04129 0.0186005 7.30318L1.76725 7.61564L2.19551 5.15431L0.418471 6.61634Z" fill="url(#paint2_linear_1_3301)"/>
<path d="M1.66893 13.7719L3.82605 14.5224L2.59288 12.3578L1.05507 13.2574C1.18731 13.4917 1.40072 13.6786 1.66893 13.7719Z" fill="url(#paint3_linear_1_3301)"/>
<path d="M0.925491 12.4707C0.872423 12.7492 0.924057 13.0265 1.05457 13.2575L2.59238 12.3579L1.35921 10.1934L0.925491 12.4707Z" fill="url(#paint4_linear_1_3301)"/>
<path d="M6.42192 17.1374L8.55036 16.3075L6.2326 15.4527L5.62534 17.1435C5.87518 17.2365 6.15744 17.2405 6.42192 17.1374Z" fill="url(#paint5_linear_1_3301)"/>
<path d="M5.02734 16.625C5.16331 16.8729 5.37873 17.0517 5.62543 17.1435L6.23269 15.4528L3.91493 14.5979L5.02734 16.625Z" fill="url(#paint6_linear_1_3301)"/>
<path d="M12.1983 16.6208L13.3023 14.5987L10.9846 15.4535L11.5919 17.1443C11.842 17.0527 12.0609 16.8722 12.1983 16.6208Z" fill="url(#paint7_linear_1_3301)"/>
<path d="M10.8049 17.1359C11.0665 17.2374 11.3448 17.2339 11.592 17.1435L10.9848 15.4527L8.66702 16.3075L10.8049 17.1359Z" fill="url(#paint8_linear_1_3301)"/>
<path d="M16.2948 12.4614L15.858 10.1934L14.6248 12.3579L16.1626 13.2575C16.2963 13.0241 16.3493 12.7433 16.2948 12.4614Z" fill="url(#paint9_linear_1_3301)"/>
<path d="M15.5544 13.7644C15.8189 13.6716 16.03 13.4876 16.1623 13.2574L14.6245 12.3578L13.3913 14.5224L15.5544 13.7644Z" fill="url(#paint10_linear_1_3301)"/>
<path d="M16.7951 6.60704L15.0215 5.15431L15.4497 7.61564L17.1984 7.30318C17.1534 7.03751 17.0157 6.78783 16.7951 6.60704Z" fill="url(#paint11_linear_1_3301)"/>
<path d="M17.0547 8.08774C17.1987 7.84445 17.2437 7.566 17.1987 7.30353L15.45 7.61599L15.8783 10.0773L17.0547 8.08774Z" fill="url(#paint12_linear_1_3301)"/>
<path d="M13.4649 1.7973L11.1847 1.83944L13.0742 3.44594L14.2156 2.06761C14.0122 1.8938 13.7486 1.79206 13.4649 1.7973Z" fill="url(#paint13_linear_1_3301)"/>
<path d="M14.6025 2.76214C14.5583 2.48194 14.4163 2.23953 14.2155 2.06775L13.0741 3.44607L14.9636 5.05257L14.6025 2.76214Z" fill="url(#paint14_linear_1_3301)"/>
<path d="M8.60858 14.9429C11.9355 14.9429 14.6325 12.2101 14.6325 8.83902C14.6325 5.46792 11.9355 2.7351 8.60858 2.7351C5.28168 2.7351 2.5847 5.46792 2.5847 8.83902C2.5847 12.2101 5.28168 14.9429 8.60858 14.9429Z" fill="url(#paint15_radial_1_3301)"/>
<path d="M8.60852 2.1896C4.98444 2.1896 2.04651 5.16628 2.04651 8.83852C2.04651 12.5108 4.98444 15.4877 8.60852 15.4877C12.2326 15.4877 15.1705 12.5108 15.1705 8.83852C15.1705 5.16628 12.2326 2.1896 8.60852 2.1896ZM8.60852 14.9419C5.2819 14.9419 2.58522 12.2093 2.58522 8.83852C2.58522 5.4677 5.2819 2.73518 8.60852 2.73518C11.9351 2.73518 14.6318 5.4677 14.6318 8.83852C14.6318 12.2093 11.9351 14.9419 8.60852 14.9419Z" fill="url(#paint16_linear_1_3301)"/>
<path d="M8.60874 1.34153C4.52226 1.34153 1.2097 4.69811 1.2097 8.83889C1.2097 12.9797 4.52226 16.3363 8.60874 16.3363C12.6952 16.3363 16.0078 12.9797 16.0078 8.83889C16.0078 4.69811 12.6952 1.34153 8.60874 1.34153ZM8.60874 15.4849C4.98639 15.4849 2.04989 12.5094 2.04989 8.83889C2.04989 5.1684 4.98639 2.19318 8.60874 2.19318C12.2311 2.19318 15.1676 5.16869 15.1676 8.83918C15.1676 12.5097 12.2311 15.4849 8.60874 15.4849Z" fill="url(#paint17_linear_1_3301)"/>
<path d="M6.94846 11.8972C6.84806 11.8972 6.75483 11.8647 6.67251 11.8066C6.66189 11.7993 6.65472 11.792 6.64755 11.7848C6.64038 11.7813 6.63665 11.774 6.63321 11.7702C6.61886 11.7592 6.61169 11.7484 6.60108 11.7377C6.59391 11.7304 6.59018 11.7231 6.5833 11.7159L6.57985 11.7124C6.57268 11.7051 6.56895 11.6978 6.56551 11.6906L6.55834 11.6795C6.544 11.6577 6.53338 11.6359 6.52248 11.6141C6.51904 11.6034 6.51531 11.5923 6.51158 11.5816C6.50814 11.5705 6.50441 11.5563 6.50097 11.5452C6.49724 11.5307 6.4938 11.5127 6.49007 11.4944C6.49007 11.4871 6.48663 11.4764 6.48663 11.4691C6.48663 11.4546 6.48318 11.44 6.48318 11.4255C6.48318 11.4002 6.48663 11.3746 6.49036 11.3456L6.76631 9.71901L5.60169 8.56799C5.58018 8.54619 5.55866 8.5209 5.54088 8.49532C5.51936 8.46276 5.50502 8.43719 5.49441 8.40812C5.49097 8.39737 5.48379 8.38283 5.48007 8.36452C5.46917 8.32092 5.46228 8.27732 5.46228 8.23023C5.46228 8.2157 5.46228 8.20495 5.46228 8.19041C5.46228 8.16861 5.46572 8.14681 5.47289 8.12502C5.47289 8.12153 5.47634 8.11426 5.47634 8.11048C5.48007 8.09944 5.48007 8.08868 5.48351 8.07793C5.48351 8.07444 5.48695 8.06688 5.49068 8.05613C5.49412 8.04508 5.49785 8.03433 5.50502 8.02357C5.51563 8.00177 5.52653 7.97997 5.54432 7.95469C5.55149 7.94015 5.5621 7.9294 5.573 7.91835C5.573 7.91835 5.57301 7.91487 5.57645 7.91487L5.63382 7.8204H5.68402C5.69119 7.81662 5.69463 7.81313 5.7018 7.80936C5.70897 7.80587 5.72332 7.7986 5.73393 7.79133C5.74827 7.78407 5.76606 7.7768 5.78757 7.76953C5.79474 7.76605 5.80535 7.76227 5.81626 7.76227C5.8306 7.75878 5.84494 7.755 5.86272 7.75122L7.47512 7.5152L8.1845 6.04474C8.26338 5.88139 8.42459 5.77966 8.60359 5.77966C8.73267 5.77966 8.85803 5.83401 8.94752 5.92848C8.96187 5.9465 8.97621 5.96103 8.98682 5.97934C9.00116 6.00114 9.01551 6.02294 9.02612 6.04474L9.7464 7.51869L11.3551 7.75471C11.5343 7.78 11.6812 7.90731 11.7349 8.08142C11.7386 8.09246 11.742 8.09944 11.742 8.11048C11.742 8.11397 11.742 8.11397 11.7455 8.11775C11.7489 8.12879 11.7526 8.13955 11.7526 8.15408C11.7526 8.15757 11.7526 8.15757 11.7526 8.16135C11.7561 8.17588 11.7561 8.18664 11.7561 8.20117C11.7598 8.27006 11.7489 8.34272 11.7202 8.40812C11.7093 8.43719 11.6953 8.46247 11.6772 8.48805L11.6735 8.49154C11.6557 8.51683 11.6342 8.54241 11.6127 8.56421L10.448 9.71523L10.724 11.338C10.7527 11.5159 10.6847 11.6938 10.5375 11.8028C10.5017 11.8281 10.4587 11.8536 10.4156 11.8682C10.4119 11.8682 10.4085 11.872 10.4013 11.872C10.3548 11.8865 10.3081 11.8938 10.2616 11.8938C10.1864 11.8938 10.111 11.8757 10.043 11.8394L8.60273 11.0732L7.16245 11.8394C7.09877 11.8792 7.02361 11.8972 6.94846 11.8972Z" fill="#DF771E"/>
<path d="M8.60387 6.01258V9.01513L7.61481 7.7336L8.38873 6.14716C8.43549 6.05996 8.52155 6.01258 8.60387 6.01258Z" fill="#FFFAF6"/>
<path d="M11.5163 8.15771L8.60678 9.01459L9.59556 7.73306L11.3227 7.9871C11.4196 8.00512 11.4876 8.074 11.5163 8.15771Z" fill="#FEE0AC"/>
<path d="M10.4024 11.6173L8.60382 9.0141L10.2019 9.63496L10.4956 11.3778C10.5168 11.4795 10.4738 11.5664 10.4024 11.6173Z" fill="#ECB76B"/>
<path d="M8.60364 9.0141V10.8113L7.05923 11.6353C6.96973 11.6824 6.87651 11.6679 6.80479 11.6173L8.60364 9.0141Z" fill="#F1A341"/>
<path d="M9.59288 7.7336L8.60382 9.01513V6.01258C8.66836 6.01258 8.7329 6.03787 8.77937 6.08873C8.78654 6.096 8.79372 6.10676 8.80089 6.1178C8.80806 6.12885 8.81523 6.1396 8.81867 6.15036L9.59288 7.7336Z" fill="#FFE9BA"/>
<path d="M11.5096 8.3208C11.5024 8.33533 11.4953 8.34987 11.4881 8.3644C11.4772 8.37893 11.4666 8.38969 11.456 8.40422L10.2056 9.63867L8.60753 9.01781L11.5171 8.16093C11.5171 8.16442 11.5205 8.1682 11.5205 8.17198C11.5205 8.17576 11.5242 8.17925 11.5242 8.18651C11.5242 8.19029 11.5242 8.19029 11.5242 8.19029C11.5242 8.19378 11.5242 8.19756 11.5242 8.20105C11.5242 8.20831 11.5242 8.21209 11.5242 8.21907C11.5277 8.25162 11.5239 8.28795 11.5096 8.3208Z" fill="#E49632"/>
<path d="M10.4027 11.6173C10.3849 11.6318 10.3634 11.6426 10.3381 11.6498C10.3347 11.6498 10.3347 11.6498 10.331 11.6533C10.2736 11.6713 10.209 11.6679 10.1482 11.6353L8.60382 10.8113V9.0141L10.4027 11.6173Z" fill="#E29136"/>
<path d="M8.60346 9.0141L6.8049 11.6173C6.80146 11.6135 6.79773 11.61 6.79429 11.6062C6.79084 11.6027 6.78711 11.599 6.78339 11.5952C6.77994 11.5917 6.77621 11.5879 6.76904 11.5807C6.76531 11.5772 6.76187 11.5734 6.75814 11.5696C6.75441 11.5658 6.7547 11.5661 6.7547 11.5623C6.75126 11.5589 6.74753 11.5551 6.74753 11.5513C6.74036 11.5405 6.73319 11.5295 6.72974 11.5187C6.7263 11.5153 6.7263 11.5077 6.72257 11.5007C6.71913 11.4935 6.71913 11.4897 6.7154 11.4827C6.71196 11.4754 6.71196 11.4647 6.71196 11.4574C6.71196 11.4539 6.71196 11.4464 6.71196 11.4429C6.71196 11.4356 6.71196 11.4283 6.71196 11.4211C6.71196 11.4065 6.71196 11.392 6.7154 11.3775L7.00914 9.63466L8.60346 9.0141Z" fill="#FED891"/>
<path d="M8.60381 9.0145L5.69427 8.15763C5.69427 8.15414 5.69772 8.15036 5.69772 8.14658C5.70116 8.13932 5.70116 8.13205 5.70489 8.12856C5.71206 8.11403 5.71923 8.10327 5.7264 8.09223C5.72984 8.08496 5.73357 8.08118 5.74075 8.07421C5.74447 8.07072 5.74792 8.06316 5.75509 8.05967C5.75853 8.05619 5.76599 8.04892 5.76943 8.04514C5.77287 8.04136 5.78004 8.03788 5.78377 8.0341C5.79094 8.03061 5.79812 8.02305 5.80529 8.01956C5.80873 8.01608 5.8159 8.0123 5.82307 8.0123C5.83397 8.00881 5.84086 8.00503 5.85176 8.00125C5.8552 8.00125 5.85893 7.99776 5.8661 7.99776C5.87327 7.99428 5.88388 7.99428 5.89478 7.9905L7.62191 7.73646L8.60381 9.0145Z" fill="#FFF3D9"/>
<path d="M8.60364 9.01456L7.00932 9.63891L5.75894 8.40446C5.7446 8.39341 5.73742 8.37917 5.72681 8.36464C5.71964 8.3501 5.70903 8.33557 5.7053 8.32104C5.70185 8.31377 5.69813 8.3065 5.69813 8.29924C5.69095 8.27744 5.68723 8.25215 5.68723 8.23035C5.68723 8.22308 5.68723 8.21582 5.68723 8.20855C5.68723 8.1978 5.68723 8.19053 5.69095 8.17949C5.69095 8.176 5.6944 8.17222 5.6944 8.16495C5.6944 8.16146 5.69784 8.15769 5.69784 8.1542L8.60364 9.01456Z" fill="#ECB76B"/>
<defs>
<linearGradient id="paint0_linear_1_3301" x1="8.72964" y1="0.899591" x2="10.9947" y2="0.899591" gradientUnits="userSpaceOnUse">
<stop stop-color="#FEE998"/>
<stop offset="1" stop-color="#FCC15B"/>
</linearGradient>
<linearGradient id="paint1_linear_1_3301" x1="3.69175" y1="2.65529" x2="5.97693" y2="0.762795" gradientUnits="userSpaceOnUse">
<stop stop-color="#FEE998"/>
<stop offset="1" stop-color="#FCC15B"/>
</linearGradient>
<linearGradient id="paint2_linear_1_3301" x1="2.23597" y1="5.14916" x2="0.935607" y2="7.25746" gradientUnits="userSpaceOnUse">
<stop stop-color="#FCC15B"/>
<stop offset="1" stop-color="#FEE998"/>
</linearGradient>
<linearGradient id="paint3_linear_1_3301" x1="1.63665" y1="12.7573" x2="3.87142" y2="14.2074" gradientUnits="userSpaceOnUse">
<stop stop-color="#FFC05F"/>
<stop offset="1" stop-color="#ED892B"/>
</linearGradient>
<linearGradient id="paint4_linear_1_3301" x1="1.3845" y1="10.2405" x2="1.78964" y2="12.7625" gradientUnits="userSpaceOnUse">
<stop stop-color="#FCC15B"/>
<stop offset="1" stop-color="#FEE998"/>
</linearGradient>
<linearGradient id="paint5_linear_1_3301" x1="6.03997" y1="16.3282" x2="8.22948" y2="16.8084" gradientUnits="userSpaceOnUse">
<stop stop-color="#FEAC3E"/>
<stop offset="1" stop-color="#F08223"/>
</linearGradient>
<linearGradient id="paint6_linear_1_3301" x1="3.80556" y1="14.5786" x2="5.83131" y2="16.2143" gradientUnits="userSpaceOnUse">
<stop stop-color="#FFA135"/>
<stop offset="1" stop-color="#FEB431"/>
</linearGradient>
<linearGradient id="paint7_linear_1_3301" x1="13.311" y1="14.5842" x2="11.2891" y2="16.3018" gradientUnits="userSpaceOnUse">
<stop stop-color="#FFAA3D"/>
<stop offset="1" stop-color="#ED8B1C"/>
</linearGradient>
<linearGradient id="paint8_linear_1_3301" x1="8.6758" y1="16.4694" x2="11.2273" y2="16.3295" gradientUnits="userSpaceOnUse">
<stop stop-color="#FF962D"/>
<stop offset="1" stop-color="#E56005"/>
</linearGradient>
<linearGradient id="paint9_linear_1_3301" x1="15.9517" y1="10.2025" x2="15.4256" y2="12.7302" gradientUnits="userSpaceOnUse">
<stop stop-color="#FDBD41"/>
<stop offset="1" stop-color="#FEB334"/>
</linearGradient>
<linearGradient id="paint10_linear_1_3301" x1="16.6238" y1="10.6481" x2="14.108" y2="14.9483" gradientUnits="userSpaceOnUse">
<stop stop-color="#F6942F"/>
<stop offset="1" stop-color="#EA6F11"/>
</linearGradient>
<linearGradient id="paint11_linear_1_3301" x1="14.8977" y1="5.22709" x2="16.4096" y2="7.43814" gradientUnits="userSpaceOnUse">
<stop stop-color="#FDBD41"/>
<stop offset="1" stop-color="#FEB334"/>
</linearGradient>
<linearGradient id="paint12_linear_1_3301" x1="15.7859" y1="10.071" x2="16.3811" y2="7.47554" gradientUnits="userSpaceOnUse">
<stop stop-color="#FD9D24"/>
<stop offset="1" stop-color="#FF9515"/>
</linearGradient>
<linearGradient id="paint13_linear_1_3301" x1="13.6163" y1="2.72289" x2="11.3101" y2="1.6251" gradientUnits="userSpaceOnUse">
<stop stop-color="#FCC15B"/>
<stop offset="1" stop-color="#FEE998"/>
</linearGradient>
<linearGradient id="paint14_linear_1_3301" x1="13.6272" y1="2.58002" x2="14.7449" y2="5.03107" gradientUnits="userSpaceOnUse">
<stop stop-color="#FF9515"/>
<stop offset="1" stop-color="#FFBE41"/>
</linearGradient>
<radialGradient id="paint15_radial_1_3301" cx="0" cy="0" r="1" gradientUnits="userSpaceOnUse" gradientTransform="translate(8.60862 8.8389) scale(6.02388 6.10392)">
<stop offset="0.8428" stop-color="#FAAA31"/>
<stop offset="1" stop-color="#F57E16"/>
</radialGradient>
<linearGradient id="paint16_linear_1_3301" x1="8.60856" y1="2.18949" x2="8.60856" y2="15.4879" gradientUnits="userSpaceOnUse">
<stop offset="0.0226" stop-color="#FD9A18"/>
<stop offset="0.3764" stop-color="#FEC752"/>
<stop offset="1" stop-color="#FFA422"/>
</linearGradient>
<linearGradient id="paint17_linear_1_3301" x1="8.60879" y1="1.31956" x2="8.60879" y2="16.3143" gradientUnits="userSpaceOnUse">
<stop stop-color="#FFDB69"/>
<stop offset="0.1799" stop-color="#FEE7B0"/>
<stop offset="0.24" stop-color="#FEE9BA"/>
<stop offset="0.2592" stop-color="#FDECD0"/>
<stop offset="0.2953" stop-color="#FEDA92"/>
<stop offset="0.3254" stop-color="#FFCD64"/>
<stop offset="0.3405" stop-color="#FFC853"/>
<stop offset="0.7613" stop-color="#FF9114"/>
<stop offset="1" stop-color="#F57E16"/>
</linearGradient>
</defs>
</svg>
