<svg width="25" height="25" viewBox="0 0 25 25" fill="none" xmlns="http://www.w3.org/2000/svg">
<path d="M20.5764 10.6341V18.3415H22.0555V10.6341H20.5764ZM17.3718 21.5789H7.51137V23.058H17.3718V21.5789ZM4.30674 18.3415V10.6341H2.82768V18.3415H4.30674ZM5.48664 8.12487L10.4168 4.06517L9.47665 2.92338L4.54645 6.98309L5.48664 8.12487ZM14.4663 4.06517L19.3965 8.12487L20.3367 6.98309L15.4065 2.92338L14.4663 4.06517ZM10.4168 4.06517C11.5956 3.09448 13.2875 3.09448 14.4663 4.06517L15.4065 2.92338C13.6815 1.503 11.2016 1.503 9.47665 2.92338L10.4168 4.06517ZM7.51137 21.5789C5.74724 21.5789 4.30674 20.1352 4.30674 18.3415H2.82768C2.82768 20.9406 4.91889 23.058 7.51137 23.058V21.5789ZM20.5764 18.3415C20.5764 20.1352 19.1359 21.5789 17.3718 21.5789V23.058C19.9643 23.058 22.0555 20.9406 22.0555 18.3415H20.5764ZM22.0555 10.6341C22.0555 9.2204 21.4255 7.87965 20.3367 6.98309L19.3965 8.12487C20.1421 8.73886 20.5764 9.65985 20.5764 10.6341H22.0555ZM4.30674 10.6341C4.30674 9.65985 4.74099 8.73887 5.48664 8.12487L4.54645 6.98309C3.45765 7.87965 2.82768 9.2204 2.82768 10.6341H4.30674Z" fill="#313C45"/>
<path d="M10.4693 18.3743H14.4135H10.4693Z" fill="#313C45"/>
<path d="M10.4693 18.3743H14.4135" stroke="#313C45" stroke-width="1.47906" stroke-linecap="round"/>
</svg>
