<svg width="18" height="16" viewBox="0 0 18 16" fill="none" xmlns="http://www.w3.org/2000/svg">
<path d="M15.7874 5.71015H11.3373L12.3096 3.2828C12.4509 2.93709 12.4875 2.55748 12.4149 2.19113C12.3422 1.82479 12.1635 1.48787 11.901 1.22225C11.7525 1.07411 11.5736 0.960053 11.3767 0.887979C11.1797 0.815906 10.9695 0.787545 10.7605 0.804866C10.5515 0.822186 10.3487 0.884773 10.1663 0.988283C9.98394 1.09179 9.82625 1.23375 9.70421 1.4043L7.1002 5.03993C6.7125 5.58157 6.28135 6.09075 5.81101 6.56242L4.97897 7.38907C4.94082 7.42681 4.91057 7.47176 4.88996 7.5213C4.86936 7.57085 4.85882 7.62399 4.85895 7.67765V13.9335C4.85882 13.9871 4.86936 14.0403 4.88996 14.0898C4.91057 14.1394 4.94082 14.1843 4.97897 14.2221L5.9108 15.1579C6.14826 15.3967 6.4307 15.5861 6.7418 15.715C7.0529 15.8439 7.38647 15.9099 7.72322 15.9091H12.7896C13.1893 15.9084 13.5803 15.7921 13.9153 15.5741C14.2504 15.3561 14.5151 15.0457 14.6776 14.6806L17.1602 9.09496C17.3193 8.73855 17.4011 8.35249 17.4003 7.96219V7.32838C17.4003 6.8992 17.2298 6.4876 16.9263 6.18412C16.6228 5.88064 16.2112 5.71015 15.782 5.71015H15.7874Z" fill="white"/>
<path d="M2.06841 6.8457C1.8751 6.8457 1.6837 6.88387 1.50517 6.958C1.32665 7.03214 1.16452 7.1408 1.02808 7.27774C0.891641 7.41468 0.783581 7.5772 0.710098 7.756C0.636614 7.9348 0.599153 8.12634 0.599863 8.31965V13.8486C0.599863 14.2381 0.754585 14.6116 1.02999 14.887C1.3054 15.1624 1.67893 15.3172 2.06841 15.3172C2.45789 15.3172 2.83142 15.1624 3.10683 14.887C3.38224 14.6116 3.53696 14.2381 3.53696 13.8486V8.31965C3.53696 7.93016 3.38224 7.55663 3.10683 7.28123C2.83142 7.00582 2.45789 6.8511 2.06841 6.8511V6.8457Z" fill="white"/>
</svg>
