<svg width="176" height="148" viewBox="0 0 176 148" fill="none" xmlns="http://www.w3.org/2000/svg">
<path d="M75.1525 50.7918C72.9819 50.7996 70.6785 50.6172 68.2425 50.2447C65.8064 49.8428 63.3404 49.2944 60.8445 48.5994L61.962 41.2473C63.343 41.8877 64.6504 42.4549 65.8842 42.9492C67.1472 43.4139 68.3658 43.7762 69.5401 44.036C70.7143 44.2664 71.8587 44.3796 72.9734 44.3756C73.9707 44.372 74.8353 44.1635 75.5671 43.7502C76.3283 43.3368 76.9277 42.792 77.3652 42.1157C77.8027 41.4101 78.02 40.6613 78.0171 39.8693C78.014 38.9893 77.7325 38.2277 77.1729 37.5844C76.6131 36.9117 75.8776 36.313 74.9664 35.7883C74.0551 35.2636 73.056 34.7685 71.969 34.3031C70.8819 33.8084 69.78 33.299 68.6635 32.7751C67.5761 32.2216 66.5766 31.6093 65.6648 30.9379C64.7529 30.2372 64.0167 29.4331 63.4561 28.5258C62.8955 27.6185 62.6129 26.5342 62.6083 25.2729C62.6028 23.7475 62.9648 22.4409 63.6942 21.3529C64.4235 20.2356 65.4029 19.3227 66.6323 18.6143C67.8911 17.9057 69.2826 17.3874 70.8067 17.0592C72.3601 16.7016 73.9435 16.5199 75.5568 16.5141C77.6395 16.5066 79.6497 16.7633 81.5876 17.2843C83.5254 17.776 85.112 18.4889 86.3474 19.4231L84.9125 24.1803C83.619 23.393 82.3554 22.7669 81.1217 22.302C79.8881 21.8371 78.6406 21.607 77.3792 21.6115C75.9126 21.6168 74.7405 21.9584 73.8629 22.6362C73.0147 23.314 72.578 24.2249 72.5528 25.369C72.5277 26.5424 72.7952 27.5241 73.3554 28.3141C73.9448 29.0746 74.7099 29.7319 75.6505 30.2858C76.6204 30.8103 77.6782 31.2905 78.8237 31.7264C79.9986 32.1328 81.1589 32.5833 82.3046 33.0778C83.4503 33.543 84.5084 34.1112 85.4788 34.7824C86.4785 35.4241 87.2734 36.2426 87.8637 37.2378C88.454 38.233 88.7517 39.4639 88.757 40.9306C88.7649 43.1012 88.1994 44.922 87.0607 46.3927C85.9219 47.8342 84.3272 48.9253 82.2765 49.666C80.2552 50.4067 77.8805 50.7819 75.1525 50.7918Z" fill="black"/>
<path d="M99.1524 50.7051C96.9817 50.713 94.6784 50.5306 92.2424 50.1581C89.8062 49.7562 87.3402 49.2077 84.8444 48.5127L85.9619 41.1607C87.3428 41.801 88.6502 42.3683 89.884 42.8625C91.147 43.3273 92.3657 43.6896 93.54 43.9493C94.7141 44.1798 95.8586 44.293 96.9732 44.2889C97.9705 44.2853 98.8351 44.0769 99.567 43.6636C100.328 43.2502 100.928 42.7053 101.365 42.0291C101.803 41.3235 102.02 40.5747 102.017 39.7827C102.014 38.9027 101.732 38.1411 101.173 37.4977C100.613 36.8251 99.8775 36.2264 98.9662 35.7017C98.055 35.177 97.0559 34.6819 95.9688 34.2165C94.8817 33.7218 93.7799 33.2124 92.6633 32.6884C91.576 32.135 90.5764 31.5226 89.6647 30.8512C88.7528 30.1505 88.0166 29.3465 87.4559 28.4392C86.8953 27.5319 86.6127 26.4476 86.6082 25.1862C86.6027 23.6609 86.9646 22.3543 87.694 21.2663C88.4234 20.149 89.4027 19.2361 90.6322 18.5277C91.891 17.8191 93.2824 17.3007 94.8066 16.9726C96.36 16.615 97.9433 16.4333 99.5567 16.4274C101.639 16.4199 103.65 16.6767 105.587 17.1977C107.525 17.6893 109.112 18.4023 110.347 19.3365L108.912 24.0937C107.619 23.3064 106.355 22.6803 105.122 22.2154C103.888 21.7505 102.64 21.5203 101.379 21.5249C99.9124 21.5302 98.7403 21.8717 97.8627 22.5496C97.0145 23.2273 96.5778 24.1382 96.5526 25.2823C96.5275 26.4558 96.7951 27.4375 97.3552 28.2275C97.9447 28.988 98.7097 29.6452 99.6504 30.1992C100.62 30.7237 101.678 31.2039 102.824 31.6397C103.998 32.0462 105.159 32.4966 106.304 32.9912C107.45 33.4564 108.508 34.0246 109.479 34.6957C110.478 35.3375 111.273 36.1559 111.864 37.1511C112.454 38.1464 112.752 39.3773 112.757 40.8439C112.765 43.0146 112.199 44.8353 111.061 46.3061C109.922 47.7476 108.327 48.8387 106.276 49.5794C104.255 50.32 101.88 50.6953 99.1524 50.7051Z" fill="black"/>
<path d="M117.813 14.1535C123.612 14.1326 128.337 20.831 128.367 29.1162C128.397 37.4014 123.72 44.1324 117.921 44.1533C112.122 44.1743 107.397 37.4759 107.367 29.192C107.337 20.908 112.014 14.1745 117.813 14.1535ZM115.535 28.4642C117.542 28.4569 119.172 28.875 119.161 26.0586C119.151 23.2422 117.533 26.0645 115.526 26.0717C113.519 26.079 111.88 23.2684 111.891 26.0849C111.901 28.9013 113.527 28.4714 115.535 28.4642Z" fill="#41B8EA"/>
<path d="M13.2086 39.3984L11.8212 36.2149C14.1513 35.403 16.0131 34.645 17.4066 33.9408C18.7994 33.2073 19.841 32.5105 20.5312 31.8505C21.2502 31.1606 21.7205 30.5052 21.9421 29.8844C22.1638 29.2636 22.2684 28.6599 22.2561 28.0734C22.2388 27.2522 21.9319 26.6132 21.3355 26.1563C20.7684 25.6988 20.0303 25.4797 19.1211 25.4988C18.3587 25.5149 17.5262 25.6938 16.6239 26.0355C15.7509 26.3767 14.9112 26.9078 14.1049 27.6289C13.298 28.3207 12.5983 29.2304 12.0059 30.3577L11.0163 27.2539C11.4889 26.0117 12.1103 24.869 12.8805 23.8259C13.6794 22.7528 14.5841 21.8242 15.5945 21.0401C16.6048 20.256 17.7069 19.646 18.9006 19.2101C20.1231 18.7442 21.4089 18.4971 22.7579 18.4687C25.0161 18.4211 26.803 18.9849 28.1187 20.1601C29.4344 21.3353 30.1148 22.9934 30.1599 25.1342C30.1988 26.9818 29.6796 28.7972 28.6023 30.5803C27.5243 32.334 25.7394 33.956 23.2476 35.4461C20.7557 36.9363 17.4094 38.2537 13.2086 39.3984ZM5.05344 53.3893C5.10588 50.3075 5.1043 47.4469 5.04869 44.8075C5.0218 42.1381 4.93811 39.558 4.79761 37.0671C4.68583 34.5462 4.48545 31.9978 4.19646 29.422C3.93681 26.8456 3.6148 24.0944 3.23042 21.1685L13.5348 19.3671C13.6228 22.1525 13.6909 24.689 13.7391 26.9765C13.7873 29.264 13.8033 31.4201 13.7873 33.4449C13.8 35.4398 13.7687 37.4355 13.6934 39.4322C13.6468 41.399 13.5437 43.4696 13.3842 45.6441C13.2539 47.818 13.0703 50.2424 12.8332 52.9173L5.05344 53.3893ZM12.8332 52.9173L11.3255 48.196C13.173 48.1571 14.8715 48.004 16.4209 47.7366C17.9703 47.4693 19.3119 47.0889 20.4458 46.5956C21.5796 46.1023 22.4474 45.5119 23.049 44.8244C23.6501 44.1076 23.941 43.2946 23.9219 42.3854C23.904 41.535 23.6402 40.851 23.1305 40.3337C22.6208 39.8163 21.9529 39.4489 21.1268 39.2316C20.3007 39.0143 19.4035 38.9012 18.4351 38.8922C17.496 38.8827 16.5588 38.9611 15.6234 39.1275C14.7168 39.264 13.8987 39.4279 13.1692 39.6193L13.3299 36.7993C14.8357 35.858 16.4629 35.1049 18.2114 34.54C19.9892 33.9744 21.7423 33.6294 23.4707 33.505C25.2285 33.3799 26.8305 33.5222 28.2768 33.9318C29.7225 34.3122 30.8957 34.9916 31.7965 35.9702C32.6973 36.9488 33.1653 38.2739 33.2005 39.9455C33.2456 42.0863 32.5979 44.0658 31.2572 45.8837C29.9452 47.6718 27.7913 49.1841 24.7953 50.4208C21.8281 51.6276 17.8407 52.4598 12.8332 52.9173Z" fill="black"/>
<path d="M30.8714 49.4556C31.1262 46.9026 31.3085 44.5846 31.4183 42.5016C31.5574 40.389 31.6382 38.3941 31.6607 36.5167C31.6832 34.6099 31.6323 32.7034 31.5081 30.7972C31.4132 28.8908 31.23 26.8821 30.9583 24.7711C30.6866 22.6307 30.3407 20.2706 29.9208 17.6908L40.2586 17.0815C40.3284 20.1613 40.3095 23.0507 40.2019 25.7497C40.0943 28.4488 39.8984 31.0455 39.614 33.5399C39.3589 36.0049 39.0158 38.4554 38.5846 40.8917C38.1826 43.2985 37.7222 45.7788 37.2034 48.3327L30.8714 49.4556ZM51.8166 49.732C50.7611 49.8825 49.5443 50.0189 48.166 50.1412C46.7877 50.2341 45.3213 50.3128 43.7668 50.377C42.2416 50.4119 40.7016 50.4174 39.1469 50.3937C37.592 50.3407 36.0956 50.2434 34.6578 50.1019C33.2493 49.9603 31.9872 49.7449 30.8714 49.4556L33.0552 44.9597C35.6675 45.3902 38.425 45.4536 41.328 45.1498C44.2309 44.846 47.4553 44.2184 51.0012 43.2669L51.8166 49.732Z" fill="black"/>
<path d="M171.705 50.6192C171.576 47.481 171.507 44.5772 171.497 41.9079C171.458 39.2387 171.478 36.6573 171.557 34.1636C171.607 31.6408 171.729 29.0737 171.925 26.4623C172.121 23.8215 172.39 20.9899 172.731 17.9673L162.341 16.3768C162.321 18.8702 162.314 21.1729 162.322 23.2849C162.329 25.3969 162.366 27.4354 162.432 29.4006C162.468 31.3658 162.549 33.3602 162.673 35.3837C162.798 37.4073 162.967 39.548 163.181 41.8059C163.394 44.0638 163.682 46.5708 164.044 49.3269L171.705 50.6192ZM153.531 50.3328C153.351 49.1601 153.185 47.7674 153.032 46.1546C152.85 44.5419 152.698 42.8264 152.574 41.0082C152.45 39.1607 152.37 37.2983 152.334 35.421C152.297 33.5438 152.32 31.7544 152.402 30.0528C152.484 28.3218 152.654 26.7958 152.914 25.4749C153.173 24.1246 153.55 23.0526 154.046 22.2588C154.513 21.4651 155.127 21.0669 155.89 21.0641C157.122 21.0597 158.224 21.8037 159.198 23.2962C160.142 24.7595 160.942 26.8979 161.597 29.7116C162.223 32.5253 162.719 35.9409 163.086 39.9583L166.874 41.1326C166.388 36.529 165.758 32.6592 164.984 29.5233C164.21 26.3581 163.321 23.8386 162.317 21.9649C161.313 20.0619 160.193 18.6872 158.958 17.841C157.723 16.9948 156.387 16.5743 154.95 16.5795C153.102 16.5861 151.505 17.1492 150.16 18.2688C148.814 19.359 147.705 20.903 146.832 22.9008C145.93 24.8694 145.22 27.204 144.702 29.9046C144.154 32.6052 143.783 35.5546 143.59 38.7526C143.366 41.9508 143.276 45.3098 143.318 48.8297L153.531 50.3328ZM133.335 50.3617C133.215 49.4528 133.108 48.2505 133.014 46.7549C132.892 45.2593 132.812 43.6022 132.776 41.7837C132.74 39.9651 132.748 38.1024 132.8 36.1956C132.823 34.2595 132.933 32.4111 133.132 30.6503C133.302 28.8604 133.56 27.2461 133.907 25.8075C134.254 24.3689 134.704 23.2379 135.258 22.4146C135.783 21.562 136.442 21.1343 137.234 21.1315C138.114 21.1283 138.878 21.5949 139.527 22.5312C140.146 23.4383 140.664 24.6684 141.08 26.2216C141.467 27.7749 141.782 29.5191 142.023 31.4542C142.265 33.3894 142.463 35.398 142.617 37.4801C142.771 39.5329 142.91 41.5418 143.035 43.5067C143.13 45.4717 143.224 47.246 143.318 48.8297L147.466 39.9706C147.431 38.5334 147.352 36.9644 147.229 35.2635C147.105 33.5626 146.894 31.8327 146.594 30.0737C146.294 28.2855 145.878 26.5856 145.344 24.9742C144.81 23.3335 144.13 21.8692 143.304 20.5815C142.449 19.294 141.433 18.2709 140.257 17.5125C139.051 16.7542 137.627 16.378 135.985 16.3839C133.785 16.3919 131.91 17.044 130.36 18.3403C128.81 19.6365 127.54 21.3864 126.551 23.59C125.532 25.7937 124.764 28.3045 124.246 31.1224C123.728 33.9403 123.416 36.9041 123.31 40.0138C123.174 43.0944 123.215 46.1449 123.431 49.1655L133.335 50.3617Z" fill="black"/>
<path d="M61.1322 24.3382C60.8614 24.0512 60.5813 23.7818 60.2915 23.5324C60.0022 23.2831 59.703 23.0526 59.3963 22.8433C58.0162 21.9008 56.4695 21.375 54.838 21.3809C54.2941 21.3829 53.7609 21.4436 53.24 21.5595C48.2037 22.678 44.3654 28.9117 44.3925 36.4187C44.4196 43.9257 48.3034 50.1315 53.347 51.2136C53.8688 51.3258 54.4024 51.3827 54.9463 51.3807C57.8457 51.3702 60.465 49.682 62.3554 46.9609C64.2458 44.2397 65.4073 40.4855 65.3923 36.344C65.3746 31.4256 63.7014 27.0657 61.1311 24.3394L61.1322 24.3382ZM56.2461 38.2979C54.3184 38.3049 52.7476 36.1181 52.7378 33.4144C52.7281 30.7107 54.2831 28.5126 56.2107 28.5057C58.1378 28.4987 59.7086 30.6855 59.7184 33.3892C59.7281 36.0929 58.1732 38.291 56.2461 38.2979Z" fill="#DE40C3"/>
</svg>
