<svg width="25" height="25" viewBox="0 0 25 25" fill="none" xmlns="http://www.w3.org/2000/svg">
<path d="M12.5065 5.96576L11.9651 6.46962C12.105 6.61991 12.3012 6.70529 12.5065 6.70529C12.7117 6.70529 12.9079 6.61991 13.0478 6.46962L12.5065 5.96576ZM13.0478 6.46962L13.8021 5.65916L12.7195 4.65144L11.9651 5.4619L13.0478 6.46962ZM11.2108 5.65916L11.9651 6.46962L13.0478 5.4619L12.2934 4.65144L11.2108 5.65916ZM3.66708 13.7637L10.4564 21.058L11.5391 20.0502L4.74972 12.7561L3.66708 13.7637ZM14.5565 21.058L21.3458 13.7637L20.2631 12.7561L13.4739 20.0502L14.5565 21.058ZM20.2631 5.65916C22.082 7.61326 22.0821 10.802 20.2631 12.7561L21.3458 13.7637C23.6933 11.2418 23.6933 7.1734 21.3458 4.65144L20.2631 5.65916ZM21.3458 4.65144C18.9702 2.09918 15.0951 2.09918 12.7195 4.65144L13.8021 5.65916C15.5928 3.73535 18.4725 3.73535 20.2631 5.65916L21.3458 4.65144ZM4.74973 5.65916C6.54038 3.73535 9.42011 3.73535 11.2108 5.65916L12.2934 4.65144C9.9178 2.09918 6.04269 2.09918 3.66708 4.65144L4.74973 5.65916ZM10.4564 21.058C11.5821 22.2673 13.4308 22.2673 14.5565 21.058L13.4739 20.0502C12.9331 20.6312 12.0798 20.6312 11.5391 20.0502L10.4564 21.058ZM3.66708 4.65144C1.31967 7.1734 1.31967 11.2418 3.66708 13.7637L4.74972 12.7561C2.93087 10.802 2.93087 7.61326 4.74973 5.65916L3.66708 4.65144Z" fill="#313C45"/>
</svg>
