<svg width="18" height="18" viewBox="0 0 18 18" fill="none" xmlns="http://www.w3.org/2000/svg">
<g clip-path="url(#clip0_1_3807)">
<path fill-rule="evenodd" clip-rule="evenodd" d="M14.9525 3.06004C13.3805 1.48804 11.2445 0.600037 9.02446 0.600037C6.79246 0.600037 4.66845 1.48804 3.09645 3.06004C1.98045 4.20004 1.18845 5.61604 0.816454 7.16404C0.588454 8.04004 0.540453 8.95204 0.672454 9.84004C0.804454 10.728 1.11645 11.58 1.58445 12.348C1.63245 12.432 1.68045 12.504 1.69245 12.528C1.70445 12.564 1.71645 12.576 1.71645 12.576C1.72845 12.6 1.74045 12.624 1.72845 12.66C1.72845 12.66 1.74045 12.66 1.72845 12.696C1.71645 12.732 1.70445 12.78 1.69245 12.864V12.876C1.56045 13.356 1.46445 13.74 1.40445 14.04C1.34445 14.34 1.33245 14.64 1.38045 14.94C1.46445 15.36 1.66845 15.732 1.95645 16.032C2.25645 16.332 2.64045 16.536 3.04845 16.62C3.34845 16.668 3.64845 16.656 3.94845 16.584C4.26045 16.524 4.64445 16.428 5.11245 16.308H5.13645L5.30445 16.26H5.37645C5.38845 16.26 5.40045 16.272 5.41246 16.272L5.46045 16.296L5.64045 16.416C6.42045 16.872 7.28446 17.184 8.17246 17.304C9.07246 17.436 9.98446 17.376 10.8605 17.148C12.3965 16.776 13.8005 16.008 14.9405 14.904H14.9525C16.5245 13.332 17.4005 11.208 17.4005 8.98804C17.4005 6.75604 16.5245 4.63204 14.9525 3.06004ZM5.72445 10.308C5.00445 10.308 4.41645 9.70804 4.41645 8.98804C4.41645 8.25604 5.00445 7.66804 5.72445 7.66804C6.45646 7.66804 7.04446 8.25604 7.04446 8.98804C7.04446 9.70804 6.45646 10.308 5.72445 10.308ZM9.01246 10.308C8.29246 10.308 7.70446 9.70804 7.70446 8.98804C7.70446 8.25604 8.29246 7.66804 9.01246 7.66804C9.74446 7.66804 10.3325 8.25604 10.3325 8.98804C10.3325 9.70804 9.74446 10.308 9.01246 10.308ZM12.3005 10.308C11.5805 10.308 10.9925 9.70804 10.9925 8.98804C10.9925 8.25604 11.5805 7.66804 12.3005 7.66804C13.0325 7.66804 13.6205 8.25604 13.6205 8.98804C13.6205 9.70804 13.0325 10.308 12.3005 10.308Z" fill="white"/>
</g>
<defs>
<clipPath id="clip0_1_3807">
<rect width="16.8" height="16.776" fill="white" transform="translate(0.599854 0.600037)"/>
</clipPath>
</defs>
</svg>
