<svg width="24" height="25" viewBox="0 0 24 25" fill="none" xmlns="http://www.w3.org/2000/svg">
<path d="M15.2505 7.42087C15.2505 9.19074 13.8157 10.6255 12.0459 10.6255V12.1046C14.6326 12.1046 16.7296 10.0076 16.7296 7.42087H15.2505ZM12.0459 10.6255C10.276 10.6255 8.84123 9.19074 8.84123 7.42087H7.36217C7.36217 10.0076 9.45913 12.1046 12.0459 12.1046V10.6255ZM8.84123 7.42087C8.84123 5.651 10.276 4.21624 12.0459 4.21624V2.73718C9.45913 2.73718 7.36217 4.83414 7.36217 7.42087H8.84123ZM12.0459 4.21624C13.8157 4.21624 15.2505 5.651 15.2505 7.42087H16.7296C16.7296 4.83414 14.6326 2.73718 12.0459 2.73718V4.21624ZM18.2086 17.7743C18.2086 18.2963 17.7663 18.9679 16.5957 19.5532C15.4696 20.1162 13.8619 20.4859 12.0459 20.4859V21.965C14.0418 21.965 15.8853 21.5621 17.2573 20.8761C18.5849 20.2123 19.6877 19.1583 19.6877 17.7743H18.2086ZM12.0459 20.4859C10.2298 20.4859 8.62215 20.1162 7.49594 19.5532C6.32549 18.9679 5.88311 18.2963 5.88311 17.7743H4.40405C4.40405 19.1583 5.5068 20.2123 6.83448 20.8761C8.2064 21.5621 10.0499 21.965 12.0459 21.965V20.4859ZM5.88311 17.7743C5.88311 17.2523 6.32549 16.5807 7.49594 15.9954C8.62215 15.4323 10.2298 15.0627 12.0459 15.0627V13.5836C10.0499 13.5836 8.2064 13.9865 6.83448 14.6725C5.5068 15.3363 4.40405 16.3903 4.40405 17.7743H5.88311ZM12.0459 15.0627C13.8619 15.0627 15.4696 15.4323 16.5957 15.9954C17.7663 16.5807 18.2086 17.2523 18.2086 17.7743H19.6877C19.6877 16.3903 18.5849 15.3363 17.2573 14.6725C15.8853 13.9865 14.0418 13.5836 12.0459 13.5836V15.0627Z" fill="#313C45"/>
</svg>
