<svg width="68" height="76" viewBox="0 0 68 76" fill="none" xmlns="http://www.w3.org/2000/svg">
<path d="M15.8917 43.8712C11.3351 43.7509 7.08133 43.3967 2.99772 45.2998C2.39139 44.2186 2.83399 43.4222 3.22105 42.6614C5.7362 37.9573 9.31302 33.904 13.6677 30.8231C15.7521 29.3799 18.168 28.4882 20.6902 28.2311C21.6314 28.1214 22.5725 27.9762 23.5188 27.8463C27.6355 19.6859 33.8708 13.634 41.7984 9.35286C46.9715 6.45949 52.6237 4.52185 58.4839 3.63279C60.7558 3.32084 63.114 3.07946 64.8233 1.17993C65.3276 0.626299 66.142 0.436034 66.6452 1.00121C67.0265 1.43015 67.3438 2.39594 67.1175 2.81188C65.1964 6.36255 65.7674 10.2535 65.3608 14.0113C64.8062 18.4791 63.5095 22.8229 61.5242 26.8636C58.5946 33.0402 54.4374 38.5551 49.3062 43.0722C48.2364 44.0227 47.1717 44.9783 46.0714 45.8936C45.7378 46.1209 45.4872 46.4504 45.3571 46.8325C45.227 47.2146 45.2245 47.6286 45.35 48.0123C46.2089 51.7301 45.3354 55.1808 43.3117 58.3319C42.2127 60.0556 40.9974 61.7023 39.6743 63.2607C37.7738 65.4849 35.7261 67.5882 33.724 69.7267C33.3159 70.1554 32.8173 70.4875 32.2644 70.6989C33.1883 65.79 32.0732 61.1922 31.0586 56.4169C30.6008 56.6242 30.157 56.8608 29.7298 57.1254C27.6798 58.6161 25.7142 58.2385 23.6546 57.0613C20.7071 55.3659 18.3801 53.0304 16.2091 50.4665C14.6839 48.6748 13.8934 47.0425 15.5211 44.961C15.693 44.616 15.8177 44.2495 15.8917 43.8712ZM65.858 1.71281C64.0322 3.58239 61.878 4.2584 59.5451 4.50476C55.3854 4.96527 51.4516 6.29572 47.5893 7.81322C40.0329 10.6903 33.4168 15.5964 28.4689 21.9913C27.1387 23.7123 25.8845 25.4988 24.6913 27.3155C23.8253 28.6349 22.6172 29.1354 21.1546 29.2571C18.6253 29.4499 16.1977 30.3343 14.1371 31.8136C9.96622 34.7852 6.76545 38.6341 4.12843 42.9872C4.03784 43.1343 4.09437 43.367 4.07515 43.6506C8.52681 42.7334 12.9345 42.2669 17.6008 43.3031C16.9775 44.5305 16.46 45.6258 15.8664 46.6759C15.464 47.3911 15.6278 47.8968 16.0958 48.5178C18.4153 51.5773 21.002 54.3169 24.3505 56.3197C26.6437 57.6884 26.563 57.7798 28.9628 56.4194C29.8014 55.9456 30.4764 55.0015 31.7534 55.3614C33.0772 59.5105 33.737 63.8428 33.7083 68.1979C35.9826 65.7293 37.9851 63.7224 39.7998 61.5541C42.9301 57.8118 45.3099 53.7381 44.5521 48.5669C44.2771 46.6948 44.7882 45.235 46.4502 44.2469C46.5636 44.1702 46.6685 44.0815 46.7631 43.9825C51.4919 39.9155 55.7079 35.3997 58.7813 29.9262C61.8547 24.4527 64.1472 18.6277 64.4835 12.2275C64.6589 8.90586 64.5455 5.54477 66.1088 2.45608C66.1439 2.35976 66.0268 2.1982 65.858 1.71281Z" fill="#336DD5" fill-opacity="0.44"/>
<path d="M22.065 61.0816C22.9916 61.1289 23.4796 61.6638 23.3713 62.54C23.3164 63.6178 23.0896 64.68 22.6993 65.6862C21.8509 67.4922 20.6369 69.1023 19.1341 70.4148C17.6313 71.7274 15.8724 72.7137 13.9687 73.3114C14.8121 71.3492 16.7467 70.1374 16.333 67.7342C11.7432 71.0566 7.15257 74.1461 1.25353 75.2001C2.16551 69.7951 3.36258 64.8245 6.21522 59.8986L1.47085 61.0699C3.05348 56.3308 7.61912 51.9353 11.9764 52.9321C13.1617 53.2003 14.3081 53.618 15.388 54.1752C17.787 55.4119 19.6569 57.3138 21.3552 59.3681C21.6937 59.9189 21.958 60.512 22.1411 61.132C20.7951 59.9016 19.4441 58.6763 18.0778 57.4359C16.4749 55.9619 14.5998 54.8148 12.5576 54.0589C9.47544 52.8904 4.71285 56.0211 3.73317 59.5025L9.15757 57.3921C7.35965 59.7524 5.91131 62.3595 4.85714 65.133C3.90001 67.8499 2.78084 70.5675 2.81257 73.7466C5.81226 73.0928 8.27297 71.7778 10.6268 70.3113C12.9806 68.8448 15.1717 67.1866 17.5401 65.5378C18.3156 67.2208 17.2879 68.6167 17.364 70.0643C20.7248 68.4777 22.7458 64.5672 22.065 61.0816Z" fill="#336DD5" fill-opacity="0.44"/>
<path d="M46.6049 19.8049C46.5758 19.0432 46.7266 18.2854 47.0452 17.5929C47.3637 16.9004 47.841 16.2927 48.4383 15.8192C48.7464 15.5542 49.101 15.3486 49.4841 15.213C51.7037 14.4456 53.1729 16.1514 54.7053 17.1179C55.9281 17.8931 55.7266 19.5847 55.1391 20.8929C54.3406 22.698 52.9933 23.8977 50.8974 23.89C48.2599 23.8793 46.3598 22.0485 46.6049 19.8049ZM47.6525 19.6999C47.6395 20.1259 47.7134 20.5502 47.8695 20.9468C48.0256 21.3434 48.2607 21.7041 48.5606 22.0071C48.8605 22.31 49.2189 22.5488 49.6139 22.7089C50.0089 22.869 50.4324 22.9471 50.8585 22.9384C52.5951 22.9676 54.3301 21.1743 54.3589 19.3162C54.383 17.5949 52.7476 16.1327 50.8036 16.1296C49.0267 16.1259 47.6908 17.6849 47.6525 19.71L47.6525 19.6999Z" fill="#336DD5" fill-opacity="0.44"/>
</svg>
