<svg width="25" height="25" viewBox="0 0 25 25" fill="none" xmlns="http://www.w3.org/2000/svg">
<path fill-rule="evenodd" clip-rule="evenodd" d="M3.3858 11.965C3.3858 16.73 7.24862 20.5929 12.0136 20.5929C16.7787 20.5929 20.6415 16.73 20.6415 11.965C20.6415 7.19997 16.7787 3.33715 12.0136 3.33715C7.24862 3.33715 3.3858 7.19997 3.3858 11.965ZM12.0136 22.0719C6.43175 22.0719 1.90674 17.5469 1.90674 11.965C1.90674 6.38311 6.43175 1.85809 12.0136 1.85809C17.5955 1.85809 22.1206 6.38311 22.1206 11.965C22.1206 14.4898 21.1948 16.7983 19.6642 18.5697L22.89 21.7955C23.1788 22.0843 23.1788 22.5525 22.89 22.8413C22.6012 23.1301 22.133 23.1301 21.8442 22.8413L18.6183 19.6156C16.8469 21.1461 14.5384 22.0719 12.0136 22.0719Z" fill="#313C45"/>
</svg>
