<svg width="18" height="16" viewBox="0 0 18 16" fill="none" xmlns="http://www.w3.org/2000/svg">
<path d="M17.2038 7.30909L11.1343 1.00787C11.037 0.909516 10.9128 0.842159 10.7773 0.814291C10.6419 0.786423 10.5012 0.799292 10.373 0.851275C10.2448 0.903259 10.1349 0.992029 10.0571 1.10639C9.9793 1.22076 9.93711 1.3556 9.93583 1.49391V4.52201H9.7028C7.28941 4.52483 4.97567 5.48479 3.26915 7.19132C1.56262 8.89784 0.602673 11.2116 0.599854 13.625V15.0258C0.602027 15.182 0.657057 15.3329 0.755964 15.4538C0.85487 15.5747 0.991814 15.6585 1.14448 15.6916C1.19499 15.7043 1.24688 15.7105 1.29895 15.7103C1.43189 15.7087 1.56184 15.6707 1.67458 15.6002C1.78732 15.5297 1.87851 15.4296 1.93814 15.3108C2.57321 14.0276 3.55528 12.9481 4.77289 12.1949C5.99049 11.4417 7.39485 11.0449 8.82658 11.0496H9.93583V14.0977C9.93711 14.236 9.9793 14.3708 10.0571 14.4852C10.1349 14.5996 10.2448 14.6883 10.373 14.7403C10.5012 14.7923 10.6419 14.8052 10.7773 14.7773C10.9128 14.7494 11.037 14.6821 11.1343 14.5837L17.2025 8.2825C17.3288 8.15208 17.3996 7.97767 17.3999 7.79606C17.4001 7.61446 17.3298 7.43986 17.2038 7.30909Z" fill="white"/>
</svg>
